<svg width="32" height="48" viewBox="0 0 32 48" fill="none" xmlns="http://www.w3.org/2000/svg">
<path d="M0.953125 44.32C0.953125 44.32 7.56438 48.356 16.0273 47.9745C24.4902 47.593 30.2123 44.3963 30.2123 44.3963C30.2123 44.3963 29.1804 42.4431 27.753 40.9173C26.3255 39.3914 21.3375 38.4529 21.3375 38.4529L12.0344 38.0944C12.0344 38.0944 10.5213 39.2044 8.27812 39.6813C6.03494 40.1581 2.19299 41.5238 0.953125 44.3238V44.32Z" fill="#EE4033"/>
<path d="M23.2067 40.9554C23.8348 40.5205 24.3854 39.9788 24.8299 39.3723C23.1006 38.7848 21.3428 38.4529 21.3428 38.4529L12.0397 38.0944C12.0397 38.0944 10.6653 39.0976 8.60156 39.6088C10.9141 41.3941 13.8547 42.4813 16.8565 42.5919C19.0956 42.6758 21.4121 42.2105 23.2108 40.963L23.2067 40.9554Z" fill="#F16C51"/>
<path d="M25.9393 14.8781C25.2704 13.9473 24.055 12.9288 23.6961 11.8111C23.5697 11.422 16.2162 13.3293 15.0619 13.2683C13.7324 13.1958 12.309 13.0203 11.0528 12.5931C10.3268 12.3451 9.44992 11.7157 8.71987 12.5092C8.30794 12.9593 7.9939 13.4094 7.66762 13.913C6.87231 15.1261 6.05661 16.2095 4.53125 16.4727C4.84122 18.895 4.27838 21.4318 4.93094 23.816C5.51009 25.937 6.43999 28.1534 8.05916 29.7899C10.9223 32.6738 15.2496 33.7267 19.2302 32.2504C25.6661 29.87 28.0438 22.7365 28.1662 16.7931C27.1996 16.3735 26.5348 15.7059 25.9434 14.8781H25.9393Z" fill="#FCCB98"/>
<path d="M20.0517 32.7535C19.2808 33.0625 18.4692 33.3029 17.6005 33.4364C16.0343 33.6729 14.5294 33.65 13.1182 33.3639C13.5546 34.9546 13.261 36.8239 12.5554 38.3002C12.5554 38.3078 12.5472 38.3116 12.5391 38.3192C15.2676 39.7726 18.0899 40.0053 20.8878 38.6053C20.5003 36.9116 19.7499 34.577 20.0476 32.7535H20.0517Z" fill="#FCCB98"/>
<path d="M7.96472 12.4275C8.45006 11.9239 9.0496 11.2678 9.83675 11.4814C12.3491 12.1642 14.4577 13.0073 17.2025 12.4885C19.409 12.0727 21.5217 11.3403 23.7118 10.8596C23.879 10.8214 24.0422 10.9054 24.0911 11.0618C24.6336 12.7631 26.836 15.4296 28.4878 16.3261C28.655 16.3185 28.8222 16.4138 28.8507 16.6046C29.2586 16.5664 29.642 16.5931 29.9846 16.6961C31.2815 12.9424 29.8826 8.02907 27.5171 4.81707C26.3506 3.23777 24.76 1.51733 22.6514 1.07482C20.7794 0.681901 18.8176 0.620865 16.9048 0.742936C12.6346 1.0176 8.00143 2.48245 4.92216 5.40454C3.19287 7.04487 1.6308 9.23071 1.52884 11.6149C1.45543 13.3544 1.71645 15.0825 1.61449 16.8182C2.34862 16.3604 3.25813 16.1239 4.17579 16.2078C4.24105 16.1697 4.32262 16.1735 4.39603 16.2078C6.35371 15.4525 6.65552 13.7855 7.96472 12.4198V12.4275Z" fill="#877165"/>
<path d="M0.800801 20.26C1.34732 21.1412 2.84821 22.7434 4.07584 22.4496C3.95756 20.5079 4.18188 18.5662 4.10031 16.6131C2.41181 16.8801 -0.47577 18.2115 0.800801 20.26Z" fill="#FCCB98"/>
<path d="M28.8661 17.0252C28.9313 19.108 28.601 21.3893 27.875 23.5827C29.6899 23.1364 31.2887 21.8089 31.3091 19.9473C31.3254 18.3756 30.6321 17.1435 28.8702 17.0252H28.8661Z" fill="#FCCB98"/>
<path d="M27.6686 24.1663C27.742 24.2197 27.8399 24.2503 27.9541 24.2388C30.4012 23.9184 31.9959 21.8432 32 19.6306C32 18.5282 31.5106 17.5516 30.6786 17.0137C30.703 16.9832 30.7275 16.9489 30.7438 16.9069C32.0938 12.9892 30.6704 8.38099 28.4966 4.93247C26.1188 1.16733 22.7663 0.00765751 18.2677 2.80516e-05C13.3449 -0.00760141 8.65057 1.54118 4.85756 4.50141C3.15682 5.82893 1.94959 7.62186 1.22769 9.56355C0.33042 11.9706 1.07679 14.6104 1.26848 17.0671C0.371205 17.7728 -0.171236 18.8333 0.0490036 20.0159C0.265164 21.1832 2.66332 23.5445 4.11527 23.0143C4.1479 23.3385 4.19276 23.6628 4.24986 23.987C4.62101 26.0127 5.67734 28.2214 7.06811 29.8083C8.61794 31.5784 10.5226 32.7037 12.6475 33.2339C12.7128 34.0999 12.7576 34.9162 12.6067 35.7822C12.4721 36.5642 12.1499 37.3043 12.0357 38.0901C12.0357 38.1015 12.0357 38.1092 12.0357 38.1206C12.0113 38.1321 11.9827 38.1435 11.9664 38.1664C11.9215 38.1282 11.8603 38.1092 11.7992 38.1435C9.764 39.2116 7.18638 39.4596 5.0207 40.3408C3.00592 41.1609 1.7008 42.2863 0.579209 44.0487C0.44054 44.2661 0.762742 44.4988 0.954431 44.3195C1.62331 43.6749 2.17798 42.9462 2.85909 42.313C3.83385 41.4051 5.37961 40.9321 6.61539 40.4552C8.32837 39.7915 10.6205 39.6236 11.9705 38.3686C11.9705 38.3686 11.9705 38.3686 11.9705 38.3724C13.7161 40.4361 19.7441 41.3822 21.404 38.7691C21.4081 38.7615 21.404 38.7539 21.4081 38.7462C22.9253 39.6732 25.091 39.6656 26.7143 40.4934C28.3783 41.3441 28.5537 43.4803 30.2095 44.392C30.495 44.5484 30.7887 44.186 30.5603 43.9686C29.2307 42.7021 28.6883 40.9092 27.0936 39.8906C25.6457 38.9713 23.0599 38.441 21.3388 38.4487C21.3388 37.5522 21.2246 36.6634 21.09 35.7784C20.9269 34.7141 20.9187 33.5506 20.6251 32.5053C24.0224 30.9146 26.3676 27.7064 27.6686 24.1663ZM31.3067 19.9472C31.2903 21.8088 29.6916 23.1364 27.8726 23.5827C28.5985 21.3892 28.9289 19.108 28.8636 17.0252C30.6296 17.1434 31.3189 18.3756 31.3026 19.9472H31.3067ZM4.07449 22.4497C2.84686 22.7434 1.34597 21.1413 0.799448 20.2601C-0.477123 18.2115 2.41046 16.8802 4.09896 16.6132C4.18053 18.5663 3.95621 20.508 4.07449 22.4497ZM4.17645 16.2126C3.25471 16.1287 2.34928 16.3652 1.61515 16.823C1.71711 15.0873 1.45609 13.3592 1.5295 11.6197C1.63146 9.23549 3.19353 7.04965 4.92282 5.40931C7.99801 2.48723 12.6353 1.02238 16.9055 0.747715C18.8183 0.625644 20.78 0.686679 22.6521 1.0796C24.7607 1.51829 26.3513 3.23873 27.5177 4.82184C29.8833 8.03003 31.2822 12.9472 29.9852 16.7009C29.6426 16.6017 29.2592 16.575 28.8514 16.6094C28.8228 16.4148 28.6515 16.3233 28.4884 16.3309C26.8366 15.4344 24.6383 12.7717 24.0918 11.0666C24.0428 10.9102 23.8797 10.83 23.7125 10.8644C21.5223 11.345 19.4097 12.0775 17.2032 12.4933C14.4624 13.0083 12.3498 12.169 9.83741 11.4862C9.05026 11.2726 8.45072 11.9287 7.96538 12.4322C6.6521 13.7979 6.35437 15.4649 4.39669 16.2203C4.32328 16.1821 4.2417 16.1821 4.17645 16.2203V16.2126ZM20.8902 38.6013C18.0923 40.0013 15.27 39.7686 12.5415 38.3152C12.5455 38.3075 12.5537 38.3037 12.5578 38.2961C13.2634 36.8198 13.557 34.9506 13.1206 33.3598C14.5318 33.6459 16.0327 33.6726 17.6029 33.4323C18.4716 33.2988 19.2873 33.0585 20.0541 32.7495C19.7563 34.5691 20.5068 36.9037 20.8942 38.6013H20.8902ZM19.222 32.2459C15.2374 33.7184 10.9141 32.6694 8.05103 29.7854C6.42778 28.1527 5.50196 25.9364 4.92282 23.8116C4.27026 21.4274 4.83309 18.8906 4.52312 16.4682C6.04848 16.205 6.86418 15.1216 7.65949 13.9085C7.98577 13.4088 8.29982 12.9587 8.71174 12.5047C9.4418 11.7112 10.3187 12.3407 11.0446 12.5886C12.3008 13.0159 13.7242 13.1914 15.0538 13.2638C16.208 13.3249 23.5616 11.4175 23.688 11.8066C24.051 12.9243 25.2664 13.9429 25.9312 14.8737C26.5266 15.7015 27.1914 16.369 28.154 16.7886C28.0316 22.732 25.6538 29.8655 19.218 32.2459H19.222Z" fill="#6B4536"/>
<path d="M25.9393 14.8781C25.2704 13.9473 24.055 12.9288 23.6961 11.8111C23.5697 11.422 16.2162 13.3293 15.0619 13.2683C13.7324 13.1958 12.309 13.0203 11.0528 12.5931C10.3268 12.3451 9.44992 11.7157 8.71987 12.5092C8.30794 12.9593 7.9939 13.4094 7.66762 13.913C6.87231 15.1261 6.05661 16.2095 4.53125 16.4727C4.60466 17.0563 4.62913 17.6476 4.63321 18.2427C6.25646 17.5408 7.64315 16.3468 8.89117 15.1184C9.0747 14.9391 9.26231 14.7522 9.50702 14.6569C9.7966 14.5424 10.127 14.5729 10.441 14.6035C13.8833 14.9468 17.4683 15.3511 20.7188 14.2449C21.0166 14.1419 21.3428 14.0274 21.6446 14.119C21.82 14.1724 21.9628 14.2868 22.0974 14.3975C23.7451 15.7326 25.4784 17.0868 27.5748 17.64C27.7542 17.6858 27.9378 17.7163 28.1213 17.7468C28.1417 17.4264 28.158 17.1097 28.1621 16.7931C27.1955 16.3735 26.5307 15.7059 25.9393 14.8781Z" fill="#FBB775"/>
<path d="M17.6012 33.4365C16.035 33.673 14.5301 33.6501 13.1189 33.364C13.4207 34.4664 13.3677 35.6986 13.0781 36.843C15.7088 36.4615 18.2007 35.237 19.9953 33.4021C20.0034 33.1809 20.0197 32.9634 20.0564 32.7574C19.2856 33.0664 18.474 33.3068 17.6053 33.4403L17.6012 33.4365Z" fill="#FBB775"/>
<path d="M24.3185 7.77393C20.0606 8.60172 15.4845 9.40282 11.4916 7.793C11.2102 7.67856 10.9166 7.55267 10.6148 7.59082C10.313 7.62897 10.0642 7.82352 9.83985 8.01426C8.31449 9.31889 6.96858 10.8677 5.14957 11.7832C4.06061 12.3325 2.71063 12.5767 1.51562 12.3707C1.52378 13.8546 1.69916 15.3347 1.61351 16.8186C2.34764 16.3609 3.25715 16.1244 4.17481 16.2083C4.24006 16.1701 4.32164 16.174 4.39505 16.2083C6.35273 15.453 6.65454 13.7859 7.96374 12.4203C8.44908 11.9167 9.04862 11.2606 9.83577 11.4742C12.3481 12.1571 14.4567 13.0001 17.2015 12.4813C19.408 12.0655 21.5207 11.3331 23.7108 10.8524C23.8781 10.8143 24.0412 10.8982 24.0901 11.0546C24.6326 12.756 26.835 15.4225 28.4868 16.3189C28.654 16.3113 28.8212 16.4067 28.8498 16.5974C29.2576 16.5592 29.641 16.586 29.9836 16.6889C30.4363 15.3843 30.5546 13.9347 30.4241 12.466C27.8505 11.6955 25.5788 10.0055 24.3226 7.76248L24.3185 7.77393Z" fill="#715E53"/>
<path d="M21.7038 2.44156C22.911 2.8917 24.0286 3.52113 25.1053 4.20015C26.3615 4.9898 27.5687 5.84811 28.7188 6.77128C28.3558 6.07318 27.9521 5.41705 27.5116 4.82195C26.3451 3.24265 24.7545 1.52221 22.6459 1.0797C20.7739 0.686784 18.8121 0.625748 16.8993 0.747819C12.6291 1.02248 7.99596 2.48734 4.91669 5.40942C4.57817 5.72985 4.24781 6.07318 3.92969 6.43177C5.72423 5.01269 7.74309 3.84156 9.91285 2.99469C13.6365 1.53747 17.9475 1.04537 21.6956 2.44156H21.7038Z" fill="#A38779"/>
<path d="M12.7119 17.2279C11.8472 16.2857 9.92627 16.8541 9.29818 17.762C9.11464 18.029 9.41645 18.3228 9.71011 18.2617C10.1547 18.1702 10.538 17.907 11.003 17.865C11.525 17.8192 11.9655 18.1015 12.4957 17.9947C12.8832 17.9184 12.9362 17.4721 12.7119 17.2241V17.2279Z" fill="#877165"/>
<path d="M11.8795 21.1601C11.9122 21.0838 11.9285 21.0037 11.9285 20.9198C12.01 20.4467 12.1038 19.8364 11.8306 19.4549C11.488 18.9704 10.7824 18.9704 10.4398 19.4549C10.1666 19.8402 10.2604 20.4467 10.3419 20.9198C10.3419 21.0037 10.3583 21.0838 10.3909 21.1601C10.4439 21.3394 10.5866 21.4767 10.7661 21.5606C10.815 21.5873 10.8681 21.6102 10.9252 21.6217C10.9904 21.6369 11.0638 21.6446 11.1332 21.6407C11.2066 21.6407 11.2759 21.6407 11.3412 21.6217C11.3983 21.6064 11.4513 21.5835 11.5002 21.5606C11.6797 21.4805 11.8224 21.3394 11.8755 21.1601H11.8795Z" fill="#6B4536"/>
<path d="M19.2575 17.2279C20.1222 16.2857 22.0431 16.8541 22.6712 17.762C22.8548 18.029 22.5529 18.3228 22.2593 18.2617C21.8147 18.1702 21.4314 17.907 20.9664 17.865C20.4444 17.8192 20.0039 18.1015 19.4737 17.9947C19.0862 17.9184 19.0332 17.4721 19.2575 17.2241V17.2279Z" fill="#877165"/>
<path d="M20.0862 21.1601C20.0536 21.0838 20.0372 21.0037 20.0372 20.9198C19.9557 20.4467 19.8619 19.8364 20.1351 19.4549C20.4777 18.9704 21.1833 18.9704 21.5259 19.4549C21.7992 19.8402 21.7054 20.4467 21.6238 20.9198C21.6238 21.0037 21.6075 21.0838 21.5748 21.1601C21.5218 21.3394 21.3791 21.4767 21.1996 21.5606C21.1507 21.5873 21.0977 21.6102 21.0406 21.6217C20.9753 21.6369 20.9019 21.6446 20.8326 21.6407C20.7591 21.6407 20.6898 21.6407 20.6246 21.6217C20.5675 21.6064 20.5144 21.5835 20.4655 21.5606C20.286 21.4805 20.1433 21.3394 20.0903 21.1601H20.0862Z" fill="#6B4536"/>
<path d="M16.7302 24.6008C16.4203 24.536 16.1592 24.6084 15.8493 24.6275C15.4944 24.6466 15.16 24.5779 14.8092 24.5589C14.5278 24.5436 14.4911 24.8793 14.6787 25.009C15.2334 25.3866 16.3387 25.5888 16.873 25.112C17.0443 24.9594 16.9668 24.6542 16.7302 24.6046V24.6008Z" fill="#FBB775"/>
<path d="M16.7424 26.9051C16.3386 26.9089 16.0164 27.1034 15.6412 27.2141C15.2945 27.3171 14.9601 27.2026 14.6093 27.2522C14.4258 27.2751 14.3116 27.5002 14.3646 27.6528C14.54 28.1563 15.1762 28.2974 15.6819 28.3203C16.31 28.3508 17.036 28.1105 17.2236 27.5002C17.3133 27.2102 17.0646 26.9012 16.7383 26.9051H16.7424Z" fill="white"/>
<path d="M11.3613 19.322C10.8066 19.322 10.8066 20.1269 11.3613 20.1269C11.916 20.1269 11.916 19.322 11.3613 19.322Z" fill="white"/>
<path d="M21.0098 19.322C20.4551 19.322 20.4551 20.1269 21.0098 20.1269C21.5644 20.1269 21.5644 19.322 21.0098 19.322Z" fill="white"/>
</svg>
