<svg width="32" height="48" viewBox="0 0 32 48" fill="none" xmlns="http://www.w3.org/2000/svg">
<path d="M2.53496 45.1654C2.53496 45.1654 7.14598 47.8515 15.1819 47.9944C23.2179 48.1413 28.3552 45.3818 28.3552 45.3818C28.3552 45.3818 27.6324 42.6957 26.3129 41.8262C24.997 40.9567 23.4143 40.52 23.4143 40.52C23.4143 40.52 22.3802 42.1528 19.2629 42.259C16.1456 42.3651 10.7673 41.3895 9.71096 40.9527C8.65828 40.5159 8.24314 40.0342 8.24314 40.0342C8.24314 40.0342 5.49654 40.2995 4.64031 41.169C3.78409 42.0385 2.53125 45.1573 2.53125 45.1573L2.53496 45.1654Z" fill="#A9D380"/>
<path d="M24.9213 42.9374C25.3401 42.5822 25.6996 42.1291 25.9739 41.6229C24.7396 40.8922 23.4127 40.5208 23.4127 40.5208C23.4127 40.5208 22.3785 42.1536 19.2613 42.2638C16.144 42.37 10.7657 41.3943 9.7093 40.9575C8.65292 40.5208 8.24148 40.0391 8.24148 40.0391C8.24148 40.0391 7.47792 40.1125 6.63281 40.3085C6.81814 41.0514 7.12209 41.7576 7.56317 42.3536C8.3638 43.4436 9.52397 44.162 10.7397 44.5662C11.9592 44.9703 13.2417 45.0764 14.5131 45.0968C16.6036 45.1336 18.6941 44.954 20.7587 44.5825C22.2302 44.3172 23.7425 43.9334 24.9213 42.9292V42.9374Z" fill="#E1E99F"/>
<path d="M2.73054 35.96C3.44221 38.0215 2.71572 40.2177 3.57936 42.169C4.69505 40.6382 6.30001 39.5482 8.07178 39.6258C8.09402 39.5727 8.13108 39.5237 8.19409 39.5033C9.32091 39.0992 10.5033 38.9481 11.3558 37.9317C12.2009 36.9234 12.4493 35.7232 12.5457 34.3925C10.8925 33.7312 9.41357 32.5922 8.32753 30.9226C7.00427 28.8897 6.05538 26.5302 5.71808 24.0442C5.55869 22.8563 5.64394 21.6766 5.59205 20.4805C4.97675 20.7826 4.31697 20.954 3.6016 20.9418C3.33472 20.9377 3.27542 20.5009 3.53859 20.4274C5.64024 19.8478 6.71516 18.668 8.42761 17.325C9.85466 16.2065 11.6968 16.4106 13.0572 15.2717C14.1803 14.3328 15.333 12.9652 16.849 12.9081C18.2872 12.8509 19.6475 13.1 20.9115 12.0917C21.3563 11.7365 21.7307 11.4834 22.2348 11.263C22.3756 11.2018 22.4683 11.4018 22.4016 11.5202C22.8871 12.6958 23.002 13.7898 24.1214 14.5614C24.6996 14.9573 25.2482 15.3819 25.6263 16.0187C26.1008 16.8147 26.527 17.3454 27.2832 17.7495C27.4537 17.8393 27.6168 17.9945 27.7317 18.1618C28.2432 18.9089 28.1246 19.7008 29.0179 20.1253C29.2921 20.256 29.0772 20.6479 28.8325 20.6111C28.5212 20.5621 28.3025 20.456 28.1209 20.3131C27.8577 26.9017 24.7849 33.1392 18.8098 34.7027C18.9841 36.0702 19.2435 37.3357 20.1739 38.3644C21.019 39.3033 22.1236 40.1524 23.369 40.185C23.4135 40.185 23.4394 40.2136 23.4728 40.234C23.5654 40.185 23.6655 40.234 23.7285 40.3157C24.7034 40.532 25.8635 40.879 26.527 41.5403C26.894 41.9036 27.2795 42.3649 27.6205 42.867C28.1283 41.7893 28.6027 40.7035 28.4915 39.438C28.4137 38.5318 28.3284 37.6745 28.3951 36.7642C28.4841 35.5436 29.2514 34.5762 29.711 33.5189C30.6376 31.3921 29.1735 29.6327 29.8037 27.5671C30.3597 25.7424 31.2492 23.934 31.3308 21.9705C31.4197 19.8518 30.4671 18.1782 30.3003 16.1493C30.0779 13.4306 30.3634 11.1324 28.6435 8.87494C27.7836 7.74418 27.0719 6.63383 26.6308 5.22549C25.8598 2.75987 24.8479 1.42501 22.3756 1.23723C22.2904 1.22906 22.2422 1.176 22.2125 1.1066C21.7455 1.13926 21.3378 0.967802 20.8262 0.833091C19.4956 0.482026 18.1834 0.559592 16.8861 1.00455C14.8957 1.68627 12.9015 1.73525 10.9073 2.30675C8.35348 3.03745 7.4676 5.45409 5.62541 7.22166C4.70617 8.10341 3.52747 8.64634 2.75649 9.72402C1.67045 11.2426 1.55184 12.851 1.57408 14.7042C1.60373 17.427 0.202633 20.2315 0.880943 22.8849C1.3628 24.7627 2.37471 26.7384 2.15973 28.755C2.01146 30.147 1.05145 32.2861 1.49253 33.5964C1.78906 34.4741 2.43031 35.0905 2.72684 35.9478L2.73054 35.96Z" fill="#F26C3B"/>
<path d="M19.7569 38.834C18.8265 37.6706 18.3891 36.3275 18.4596 34.8008C18.0741 34.8865 17.6812 34.96 17.2734 35.009C15.7611 35.1845 14.2488 35.009 12.8477 34.5028C12.8885 37.2215 11.2613 39.6831 8.7297 39.9362C8.70746 39.9606 8.68151 39.977 8.65186 39.9811C8.62591 39.9811 8.59626 39.9892 8.57031 39.9933C9.90469 41.8262 14.3119 42.2548 16.1503 42.3732C18.3224 42.512 21.1543 42.4916 22.9149 40.8342C21.7436 40.7934 20.4463 39.6994 19.7569 38.834Z" fill="#FCCB98"/>
<path d="M25.251 28.8257C26.7299 26.1846 27.2081 23.2903 27.4972 20.2491C27.5157 20.045 27.6566 19.9389 27.8011 19.9225C27.7159 19.7552 27.6417 19.5633 27.5824 19.3225C27.3749 18.457 26.5891 18.1795 25.9997 17.71C25.7217 17.4896 25.5252 17.0201 25.3436 16.7099C24.6801 15.571 23.3791 15.126 22.8046 13.9748C22.4451 13.2564 22.282 12.4889 22.2189 11.6807C21.5481 12.1093 20.955 12.8237 20.2396 13.1217C19.3167 13.5054 18.5272 13.4115 17.5597 13.4809C15.2172 13.6483 14.4054 15.6485 12.4446 16.4486C11.5031 16.8323 10.4134 16.7997 9.53862 17.3753C8.66386 17.9508 7.92624 18.7101 7.14044 19.4163C6.76978 19.7511 6.38058 20.0409 5.97656 20.2818C6.41765 23.4944 6.43248 26.4295 8.17088 29.3237C10.3059 32.8834 13.8198 35.0673 17.7636 34.1121C20.7252 33.3936 23.6201 31.7404 25.2547 28.8216L25.251 28.8257Z" fill="#FCCB98"/>
<path d="M0.632402 33.1195C0.561976 34.1319 1.20693 35.0299 1.67396 35.8137C3.01946 38.0589 1.6406 40.749 3.04911 42.9983C2.71552 43.5943 2.44494 44.227 2.26702 44.872C2.17806 45.1986 2.58579 45.3578 2.74517 45.0965C3.12325 44.4842 3.44202 43.8555 3.79044 43.2473C3.83492 43.1983 3.87198 43.1412 3.89422 43.0759C4.17222 42.6064 4.46504 42.1451 4.832 41.7247C5.78089 40.6388 6.95589 40.2633 8.23838 40.0469C9.08348 42.3411 13.5277 42.7085 15.318 42.9942C17.5679 43.3534 22.1308 43.5167 23.5986 40.9409C24.2028 41.345 25.0182 41.541 25.5705 41.9002C26.7974 42.7003 27.0717 44.4352 28.0651 45.4394C28.3208 45.6966 28.7063 45.4435 28.6322 45.0761C28.5506 44.6679 28.3875 44.2474 28.1837 43.8351C28.9621 42.1533 29.4847 40.7858 29.2771 38.7855C29.0251 36.3566 30.0777 34.9646 30.719 32.8133C30.9191 32.1438 30.8302 31.4499 30.7375 30.7722C30.5225 29.2006 30.315 28.0617 30.8747 26.5064C31.6123 24.4531 32.1683 22.4406 31.9533 20.2199C31.8606 19.281 31.5641 18.3788 31.275 17.4971C30.8265 16.1296 30.8932 14.6682 30.8636 13.2435C30.8191 11.0187 29.9591 9.4879 28.7026 7.83871C27.4016 6.13645 27.2125 3.89943 25.9671 2.20534C25.1813 1.1399 23.8506 0.858235 22.6645 0.813331C22.6423 0.788839 22.6126 0.77251 22.5756 0.768427C21.6081 0.682702 20.7593 0.0989515 19.7882 0.0254728C18.7096 -0.0602524 17.7681 0.0744571 16.7265 0.368372C14.4432 1.01335 11.9858 1.12765 9.76179 1.9645C7.49705 2.81358 6.56669 5.59761 4.7245 7.09168C2.86008 8.60616 1.36631 9.86346 0.980823 12.525C0.810319 13.7048 0.932637 14.9457 0.914104 16.1336C0.888158 17.8277 0.124595 19.4279 0.0133969 21.1302C-0.179347 24.0081 1.77775 26.3839 1.38855 29.3394C1.21805 30.6334 0.725067 31.8091 0.632402 33.1276V33.1195ZM16.1483 42.3737C14.3098 42.2553 9.90265 41.8267 8.56826 39.9938C8.59421 39.9938 8.62016 39.9857 8.64981 39.9816C8.67946 39.9775 8.70541 39.9612 8.72765 39.9367C11.2593 39.6836 12.8865 37.222 12.8457 34.5033C14.2468 35.0095 15.7591 35.1891 17.2714 35.0095C17.6791 34.9605 18.072 34.8911 18.4575 34.8013C18.3908 36.3281 18.8282 37.6752 19.7548 38.8345C20.4443 39.6999 21.7416 40.7898 22.9129 40.8348C21.1522 42.4921 18.3204 42.5166 16.1483 42.3737ZM8.17166 29.3272C6.43325 26.4288 6.42213 23.4938 5.97734 20.2852C6.38136 20.0484 6.77056 19.7545 7.14122 19.4198C7.92702 18.7136 8.66464 17.9543 9.5394 17.3787C10.4179 16.799 11.5039 16.8317 12.4454 16.4521C14.4062 15.652 15.2179 13.6517 17.5605 13.4843C18.5279 13.4149 19.3174 13.5088 20.2404 13.1251C20.9595 12.8271 21.5488 12.1127 22.2197 11.6841C22.2827 12.4924 22.4458 13.2598 22.8054 13.9783C23.3799 15.1294 24.6809 15.5744 25.3444 16.7133C25.526 17.0236 25.7225 17.493 26.0005 17.7134C26.5898 18.1829 27.3756 18.4646 27.5832 19.3259C27.6425 19.5667 27.7166 19.7586 27.8019 19.926C27.6573 19.9423 27.5165 20.0525 27.4979 20.2525C27.2088 23.2937 26.7307 26.188 25.2517 28.8291C23.6171 31.752 20.7223 33.4052 17.7607 34.1196C13.8168 35.0748 10.303 32.8909 8.16795 29.3312L8.17166 29.3272ZM2.16323 28.7679C2.38192 26.7513 1.36631 24.7756 0.884451 22.8978C0.206141 20.2403 1.60724 17.4399 1.57759 14.7171C1.55906 12.8638 1.67767 11.2555 2.76 9.73692C3.53097 8.65923 4.70968 8.1163 5.62892 7.23456C7.47111 5.46698 8.35699 3.05035 10.9108 2.31965C12.9013 1.74815 14.8992 1.69916 16.8896 1.01744C18.1869 0.572484 19.4991 0.494924 20.8297 0.845989C21.3413 0.9807 21.749 1.15215 22.216 1.11949C22.2457 1.18481 22.2939 1.24195 22.3791 1.25012C24.8514 1.4379 25.8596 2.77276 26.6343 5.23838C27.0754 6.64673 27.7871 7.75707 28.647 8.88783C30.3669 11.1453 30.0815 13.4435 30.3039 16.1622C30.4707 18.1951 31.4233 19.8647 31.3343 21.9834C31.2527 23.9469 30.3632 25.7553 29.8072 27.58C29.177 29.6456 30.6412 31.405 29.7145 33.5318C29.2549 34.5891 28.4876 35.5565 28.3987 36.7771C28.3319 37.6874 28.4172 38.5447 28.495 39.4509C28.6025 40.7123 28.1281 41.8022 27.624 42.8799C27.2793 42.3778 26.8975 41.9165 26.5305 41.5532C25.8633 40.8919 24.7069 40.5449 23.732 40.3286C23.669 40.2428 23.5689 40.1939 23.4763 40.2469C23.4429 40.2265 23.417 40.202 23.3725 40.1979C22.1308 40.1653 21.0262 39.3162 20.1774 38.3773C19.247 37.3486 18.9876 36.0831 18.8133 34.7156C24.7921 33.1521 27.8612 26.9146 28.1244 20.326C28.306 20.4689 28.5247 20.575 28.836 20.624C29.0807 20.6608 29.2957 20.2689 29.0214 20.1382C28.1281 19.7137 28.243 18.9218 27.7352 18.1747C27.6203 18.0074 27.4572 17.8522 27.2867 17.7624C26.5305 17.3624 26.1043 16.8317 25.6298 16.0316C25.2517 15.3907 24.7032 14.9702 24.1249 14.5743C23.0055 13.8027 22.8906 12.7087 22.4051 11.5331C22.4718 11.4147 22.3828 11.2147 22.2383 11.2759C21.7342 11.4963 21.3598 11.7494 20.915 12.1046C19.651 13.1129 18.2907 12.8638 16.8525 12.921C15.3365 12.9781 14.1801 14.3457 13.0607 15.2846C11.7004 16.4235 9.85817 16.2194 8.43112 17.3379C6.71866 18.6768 5.64375 19.8566 3.54209 20.4403C3.27892 20.5138 3.33823 20.9506 3.60511 20.9547C4.32048 20.9669 4.97655 20.7955 5.59556 20.4934C5.64745 21.6895 5.5622 22.8651 5.72158 24.0571C6.05518 26.5431 7.00778 28.9067 8.33104 30.9355C9.41708 32.6051 10.896 33.7441 12.5492 34.4054C12.4528 35.7321 12.2082 36.9322 11.3593 37.9446C10.5068 38.961 9.32071 39.1121 8.1976 39.5162C8.13459 39.5407 8.09752 39.5856 8.07528 39.6387C6.30352 39.557 4.69485 40.647 3.58287 42.1819C2.71923 40.2347 3.44572 38.0344 2.73405 35.9729C2.43752 35.1157 1.79628 34.4952 1.49975 33.6216C1.05866 32.3112 2.01497 30.1763 2.16694 28.7802L2.16323 28.7679Z" fill="#6B4536"/>
<path d="M28.5882 24.4209C28.7735 23.482 29.1479 22.6043 29.3518 21.6695C29.5556 20.7388 29.5705 19.6856 29.0849 18.8896C28.9181 18.6161 28.6957 18.3752 28.5919 18.065C28.3473 17.3383 28.8328 16.526 28.692 15.7667C28.5252 14.8482 27.5837 14.4359 26.9202 13.8481C26.1344 13.146 25.6748 12.0234 25.723 10.9089C25.7378 10.5293 25.8083 10.1456 25.723 9.77819C25.3598 8.25555 22.7948 8.36576 22.6539 6.79822C22.35 8.13716 20.9674 8.77806 19.7331 9.01891C18.4988 9.25976 17.1385 9.34956 16.2118 10.2762C15.7893 10.7008 15.5039 11.26 15.0887 11.6927C14.0991 12.7214 12.6053 12.8194 11.2487 12.9378C9.89205 13.0562 8.37233 13.3623 7.60136 14.5992C7.17139 15.2932 7.04537 16.1831 6.57092 16.8403C5.62203 18.1466 3.62787 18.0935 2.77905 19.4774C2.22677 20.3795 2.36762 21.596 2.69009 22.6247C3.01257 23.6534 3.50184 24.6413 3.5908 25.7231C3.71312 27.2049 3.07929 28.7194 3.43512 30.1522C3.79837 31.6177 5.1031 32.6097 5.50341 34.0629C5.87778 35.4304 5.37739 36.8755 5.19576 38.2879C5.10681 38.9819 5.15499 39.7657 5.36998 40.427C6.18543 39.8881 7.10467 39.5738 8.0721 39.6187C8.09434 39.5657 8.1314 39.5167 8.19442 39.4963C9.32123 39.0921 10.5036 38.9411 11.3562 37.9246C12.2013 36.9163 12.4496 35.7162 12.546 34.3854C10.8928 33.7241 9.41389 32.5852 8.32785 30.9156C7.00459 28.8827 6.0557 26.5232 5.7184 24.0372C5.55901 22.8492 5.64427 21.6695 5.59237 20.4734C4.97707 20.7755 4.3173 20.947 3.60192 20.9347C3.33504 20.9306 3.27574 20.4938 3.53891 20.4204C5.64056 19.8407 6.71548 18.661 8.42793 17.3179C9.85498 16.1994 11.6972 16.4035 13.0575 15.2646C14.1806 14.3257 15.3334 12.9582 16.8494 12.901C18.2875 12.8439 19.6479 13.0929 20.9118 12.0846C21.3566 11.7295 21.731 11.4764 22.2351 11.2559C22.3759 11.1947 22.4686 11.3947 22.4019 11.5131C22.8874 12.6888 23.0023 13.7828 24.1217 14.5543C24.7 14.9503 25.2486 15.3748 25.6266 16.0116C26.1011 16.8077 26.5273 17.3383 27.2835 17.7425C27.454 17.8323 27.6171 17.9874 27.732 18.1548C28.2435 18.9018 28.1249 19.6937 29.0182 20.1183C29.2925 20.2489 29.0775 20.6408 28.8328 20.6041C28.5215 20.5551 28.3028 20.4489 28.1212 20.3061C27.858 26.8947 24.7852 33.1322 18.8102 34.6957C18.9844 36.0632 19.2438 37.3286 20.1742 38.3573C21.0193 39.2962 22.1239 40.1453 23.3693 40.178C23.4138 40.178 23.4397 40.2066 23.4731 40.227C23.5658 40.178 23.6658 40.227 23.7288 40.3086C23.9512 40.3576 24.1848 40.4147 24.422 40.4801C24.4368 40.3862 24.4627 40.2923 24.4702 40.1984C24.5332 39.5412 24.4553 38.8635 24.6073 38.2267C24.9891 36.6224 26.7275 35.4508 26.4569 33.8221C26.3568 33.2138 25.9713 32.6913 25.8787 32.079C25.66 30.5727 27.1908 29.544 27.8543 28.205C28.4214 27.062 28.3325 25.6782 28.5845 24.4086L28.5882 24.4209Z" fill="#E44B21"/>
<path d="M30.3085 16.1592C30.0861 13.4405 30.3716 11.1422 28.6517 8.88482C27.7918 7.75406 27.0801 6.64372 26.639 5.23538C25.868 2.76976 24.8561 1.4349 22.3838 1.24712C22.2985 1.23895 22.2504 1.18588 22.2207 1.11648C21.7537 1.14914 21.3459 0.977692 20.8344 0.842981C19.5038 0.491916 18.1916 0.569476 16.8943 1.01443C14.9039 1.69615 12.9097 1.74514 10.9155 2.31664C8.36168 3.04734 7.4758 5.46398 5.63361 7.23155C4.71437 8.1133 3.53566 8.65622 2.76469 9.73391C1.67865 11.2525 1.56004 12.8608 1.58228 14.7141C1.60081 16.4939 1.01146 18.3105 0.789062 20.0944C1.24868 18.6697 1.57116 17.1879 1.72313 15.6857C1.86027 14.3631 1.88993 12.967 2.50893 11.8199C3.52825 9.92985 5.77446 9.35427 7.21633 7.82754C8.04661 6.94988 8.58407 5.7783 9.42548 4.91697C10.682 3.62701 12.4464 3.16981 14.1255 2.76159C16.1863 2.25949 18.2954 1.7533 20.3933 2.02272C22.4913 2.29214 24.6115 3.48005 25.5455 5.56603C25.9236 6.41104 26.0904 7.36218 26.55 8.15412C27.1542 9.19915 28.2069 9.88495 28.7073 10.9953C29.1521 11.9832 29.0854 13.1425 29.1743 14.2447C29.3115 15.9306 29.9045 17.6084 30.8831 18.8902C30.6458 18.0044 30.3901 17.1226 30.3123 16.1592H30.3085Z" fill="#F69967"/>
<path d="M18.4508 34.9645C18.4508 34.9074 18.4508 34.8543 18.4508 34.7971C18.0653 34.8829 17.6724 34.9563 17.2646 35.0053C15.7523 35.1809 14.24 35.0053 12.8389 34.4991C12.8649 36.1565 12.2681 37.7159 11.2266 38.7405C13.9176 38.3649 16.49 37.026 18.4508 34.9686V34.9645Z" fill="#FBB775"/>
<path d="M27.8011 19.9225C27.7159 19.7552 27.6417 19.5633 27.5824 19.3225C27.3749 18.457 26.5891 18.1795 25.9997 17.71C25.7217 17.4896 25.5252 17.0201 25.3436 16.7099C24.6801 15.571 23.3791 15.126 22.8046 13.9748C22.4451 13.2564 22.282 12.4889 22.2189 11.6807C21.5481 12.1093 20.955 12.8237 20.2396 13.1217C19.3167 13.5054 18.5272 13.4115 17.5597 13.4809C15.2172 13.6483 14.4054 15.6485 12.4446 16.4486C11.5031 16.8323 10.4134 16.7997 9.53862 17.3753C8.66386 17.9508 7.92624 18.7101 7.14044 19.4163C6.76978 19.7511 6.38058 20.0409 5.97656 20.2818C6.10629 21.2288 6.20267 22.1473 6.31386 23.0495C7.24052 22.9352 8.15976 22.4943 8.7454 21.6983C9.21985 21.0533 9.47931 20.1919 10.0946 19.7103C10.8137 19.1469 11.7848 19.2694 12.6448 19.0449C13.4157 18.8448 14.12 18.3468 14.6019 17.6569C14.8391 17.3181 15.0281 16.9344 15.3284 16.665C16.0993 15.9833 17.2336 16.3343 18.2121 16.1874C19.5465 15.9832 20.5806 14.8403 21.5073 13.7626C22.2523 14.2606 22.4932 15.3015 22.7156 16.2282C22.938 17.1548 23.305 18.1917 24.1241 18.5101C24.8877 18.8081 25.9737 18.4774 26.3592 19.2612C26.4778 19.498 26.4816 19.7797 26.5372 20.045C26.6446 20.5634 26.9745 21.0043 27.3897 21.2696C27.4267 20.9308 27.4638 20.5879 27.4972 20.245C27.5157 20.0409 27.6566 19.9348 27.8011 19.9184V19.9225Z" fill="#FBB775"/>
<path d="M12.4784 19.2649C11.8965 19.2241 11.4257 19.6568 11.0365 20.0732C10.7215 20.412 11.1181 20.8651 11.4739 20.6978C11.7519 20.5671 12.0707 20.412 12.3783 20.4161C12.5007 20.4161 12.6341 20.5182 12.7379 20.5753C12.9455 20.6896 13.1604 20.7223 13.3754 20.6325C13.5348 20.5631 13.6794 20.4161 13.6682 20.2079C13.6312 19.5221 13.0196 19.3017 12.4784 19.2609V19.2649Z" fill="#F26C3B"/>
<path d="M13.0014 23.5181C13.0088 23.4732 13.031 23.4364 13.0347 23.3915C13.0681 22.9833 13.1348 22.5833 13.0347 22.1791C12.8531 21.428 11.8412 21.428 11.6596 22.1791C11.5632 22.5833 11.6299 22.9792 11.6596 23.3915C11.6596 23.4364 11.6818 23.4732 11.6929 23.5181C11.7041 23.5915 11.7189 23.6609 11.7448 23.7263C11.7448 23.7303 11.7523 23.7344 11.7523 23.7426C11.793 23.8324 11.8486 23.914 11.9228 23.9794C11.9561 24.0079 11.9932 24.0202 12.0302 24.0447C12.0747 24.0692 12.1081 24.11 12.16 24.1222C12.1674 24.1222 12.1711 24.1222 12.1785 24.1222C12.2304 24.1386 12.286 24.1304 12.3416 24.1304C12.3972 24.1304 12.4528 24.1386 12.5047 24.1222C12.5121 24.1222 12.5158 24.1222 12.5232 24.1222C12.5751 24.1059 12.6085 24.0692 12.653 24.0447C12.69 24.0202 12.7271 24.0079 12.7605 23.9794C12.8346 23.914 12.8902 23.8324 12.931 23.7426C12.931 23.7385 12.9384 23.7344 12.9384 23.7263C12.968 23.6609 12.9791 23.5915 12.994 23.5181H13.0014Z" fill="#6B4536"/>
<path d="M20.6748 19.2649C21.2567 19.2241 21.7275 19.6568 22.1167 20.0732C22.4317 20.412 22.0351 20.8651 21.6793 20.6978C21.4013 20.5671 21.0825 20.412 20.7749 20.4161C20.6526 20.4161 20.5191 20.5182 20.4153 20.5753C20.2078 20.6896 19.9928 20.7223 19.7778 20.6325C19.6184 20.5631 19.4739 20.4161 19.485 20.2079C19.5258 19.5221 20.1336 19.3017 20.6748 19.2609V19.2649Z" fill="#F26C3B"/>
<path d="M20.1487 23.5181C20.1413 23.4732 20.1191 23.4364 20.1154 23.3915C20.082 22.9833 20.0153 22.5833 20.1154 22.1791C20.297 21.428 21.3089 21.428 21.4905 22.1791C21.5869 22.5833 21.5202 22.9792 21.4905 23.3915C21.4905 23.4364 21.4683 23.4732 21.4572 23.5181C21.446 23.5915 21.4312 23.6609 21.4053 23.7263C21.4053 23.7303 21.3978 23.7344 21.3978 23.7426C21.3571 23.8324 21.3015 23.914 21.2273 23.9794C21.194 24.0079 21.1569 24.0202 21.1199 24.0447C21.0754 24.0692 21.042 24.11 20.9901 24.1222C20.9827 24.1222 20.979 24.1222 20.9716 24.1222C20.9197 24.1386 20.8641 24.1304 20.8085 24.1304C20.7529 24.1304 20.6973 24.1386 20.6454 24.1222C20.638 24.1222 20.6343 24.1222 20.6269 24.1222C20.575 24.1059 20.5416 24.0692 20.4971 24.0447C20.4601 24.0202 20.423 24.0079 20.3896 23.9794C20.3155 23.914 20.2599 23.8324 20.2191 23.7426C20.2191 23.7385 20.2117 23.7344 20.2117 23.7263C20.1821 23.6609 20.171 23.5915 20.1598 23.5181H20.1487Z" fill="#6B4536"/>
<path d="M16.7979 25.6038C16.3791 25.4895 16.1085 25.9222 15.6934 25.6528C15.4969 25.5262 15.2523 25.7834 15.3783 25.9998C15.7304 26.6202 16.987 27.0815 17.0871 26.0161C17.1056 25.8324 16.9573 25.6446 16.8017 25.6038H16.7979Z" fill="#FBB775"/>
<path d="M17.5515 27.9194C17.166 27.8663 16.6693 28.0664 16.2987 28.197C15.8798 28.344 15.561 28.2786 15.1867 28.0296C14.8901 27.8337 14.5046 28.1562 14.601 28.5236C14.816 29.3359 15.4758 29.8013 16.2393 29.8054C16.9028 29.8094 17.8406 29.3114 17.9815 28.5358C18.0445 28.197 17.8517 27.9561 17.5515 27.9153V27.9194Z" fill="white"/>
<path d="M23.41 27.87C24.4131 27.87 25.2262 26.9745 25.2262 25.8698C25.2262 24.765 24.4131 23.8695 23.41 23.8695C22.4069 23.8695 21.5938 24.765 21.5938 25.8698C21.5938 26.9745 22.4069 27.87 23.41 27.87Z" fill="#F69B7B"/>
<path d="M9.71468 23.8695C8.72501 23.8695 7.89844 24.7798 7.89844 25.8698C7.89844 26.9597 8.72501 27.87 9.71468 27.87C10.7043 27.87 11.5309 26.9597 11.5309 25.8698C11.5309 24.7798 10.7043 23.8695 9.71468 23.8695Z" fill="#F69B7B"/>
<path d="M12.5566 21.8773C12.2415 21.8773 12.2415 22.4121 12.5566 22.4121C12.8717 22.4121 12.8717 21.8773 12.5566 21.8773Z" fill="white"/>
<path d="M21.08 21.8773C20.765 21.8773 20.765 22.4121 21.08 22.4121C21.3951 22.4121 21.3951 21.8773 21.08 21.8773Z" fill="white"/>
</svg>
